<svg version="1.1" xmlns="http://www.w3.org/2000/svg" xmlns:xlink="http://www.w3.org/1999/xlink" width="30.19719" height="40.22803" viewBox="0,0,30.19719,40.22803"><g transform="translate(-224.90141,-154.87057)"><g data-paper-data="{&quot;isPaintingLayer&quot;:true}" stroke-width="1" stroke-linejoin="miter" stroke-miterlimit="10" stroke-dasharray="" stroke-dashoffset="0" style="mix-blend-mode: normal"><text transform="translate(226.66667,160.80744) scale(0.17722,0.17722)" font-size="40" xml:space="preserve" fill="#ffffff" fill-rule="nonzero" stroke="none" stroke-width="1" stroke-linecap="butt" stroke-linejoin="miter" stroke-miterlimit="10" stroke-dasharray="" stroke-dashoffset="0" font-family="Marker" font-weight="normal" text-anchor="start" style="mix-blend-mode: normal"><tspan x="0" dy="0">Streak!</tspan></text><g fill-rule="evenodd" stroke-linecap="square"><path d="M224.90141,180v0c0,-8.33872 6.75987,-15.09859 15.09859,-15.09859v0c4.00439,0 7.84479,1.59074 10.67632,4.42228c2.83154,2.83153 4.42228,6.67192 4.42228,10.67632v0c0,8.33872 -6.75987,15.09859 -15.09859,15.09859v0c-8.33872,0 -15.09859,-6.75987 -15.09859,-15.09859z" fill="#149300" stroke="none"/><path d="M244.60642,168.98774l0.08933,0.44668c-1.01247,1.01248 -2.76941,3.27568 -5.27079,6.78959c-2.44184,3.51391 -4.19878,6.28335 -5.27081,8.30832c-0.23823,0.53602 -0.53601,0.86359 -0.89336,0.98271c-0.134,0.134 -0.38526,0.20101 -0.75377,0.20101c-0.12284,0 -0.2587,-0.00744 -0.40759,-0.02234c-0.10423,0.01489 -0.20101,0.02234 -0.29035,0.02234c-0.268,0 -0.469,-0.06701 -0.603,-0.20101c-0.17867,-0.11911 -0.35735,-0.35734 -0.53602,-0.7147c-0.59556,-1.42939 -1.04225,-2.65032 -1.34003,-3.6628c0,-0.23823 -0.02978,-0.44669 -0.08934,-0.62535c0,-0.53603 0.35734,-1.01248 1.07203,-1.42939c0.47646,-0.23823 0.8338,-0.35735 1.07203,-0.35735c0.29779,0.05957 0.50624,0.23823 0.62535,0.53602c0.35734,0.83381 0.59556,1.39961 0.71468,1.6974c0.11911,0.23823 0.23823,0.35735 0.35734,0.35735c0.11912,0 0.23823,-0.08933 0.35734,-0.26801c2.02494,-3.57347 3.84144,-6.34292 5.44948,-8.30832c1.25069,-1.48895 2.02494,-2.35253 2.32272,-2.59077c0.95292,-0.7147 2.08451,-1.10182 3.39476,-1.16137z" fill="#ffffff" stroke="none"/><path d="M250.65936,172.29514l0.09995,0.49978c-1.13284,1.13286 -3.09866,3.66512 -5.89743,7.5968c-2.73215,3.93168 -4.69797,7.03038 -5.89746,9.29609c-0.26656,0.59975 -0.59973,0.96627 -0.99957,1.09954c-0.14994,0.14994 -0.43106,0.22491 -0.84338,0.22491c-0.13744,0 -0.28946,-0.00833 -0.45605,-0.02499c-0.11662,0.01667 -0.22491,0.02499 -0.32486,0.02499c-0.29986,0 -0.52476,-0.07497 -0.6747,-0.22491c-0.19991,-0.13327 -0.39984,-0.39983 -0.59975,-0.79967c-0.66637,-1.59933 -1.16616,-2.96541 -1.49934,-4.09827c0,-0.26656 -0.03332,-0.49979 -0.09997,-0.6997c0,-0.59976 0.39983,-1.13286 1.19948,-1.59933c0.53311,-0.26656 0.93292,-0.39984 1.19948,-0.39984c0.33319,0.06665 0.56643,0.26656 0.6997,0.59975c0.39983,0.93294 0.66637,1.56601 0.79965,1.8992c0.13327,0.26656 0.26656,0.39984 0.39983,0.39984c0.13328,0 0.26656,-0.09995 0.39983,-0.29987c2.26569,-3.99832 4.29815,-7.09702 6.09736,-9.29609c1.39939,-1.66597 2.26569,-2.63222 2.59887,-2.89879c1.06621,-0.79967 2.33234,-1.23281 3.79836,-1.29945z" fill="#ffffff" stroke="#149300"/></g></g></g></svg>