<svg version="1.1" xmlns="http://www.w3.org/2000/svg" xmlns:xlink="http://www.w3.org/1999/xlink" width="319.05077" height="319.05077" viewBox="0,0,319.05077,319.05077"><g transform="translate(-80.47462,-20.47461)"><g data-paper-data="{&quot;isPaintingLayer&quot;:true}" stroke="none" stroke-linejoin="miter" stroke-miterlimit="10" stroke-dasharray="" stroke-dashoffset="0" style="mix-blend-mode: normal"><path d="M80.47462,339.52538v-319.05077h319.05077v319.05077z" fill="none" fill-rule="nonzero" stroke-width="0" stroke-linecap="butt"/><g data-paper-data="{&quot;index&quot;:null}" fill="#0e0e0e" fill-rule="evenodd" stroke-width="1" stroke-linecap="square"><path d="M290.42994,164.14025c2.78956,4.39095 0.09394,11.10326 -6.02334,14.9986c-6.11727,3.89534 -13.34367,3.50114 -16.14732,-0.88083v0z"/><path d="M311.74073,178.25802v0c-2.80365,4.38198 -10.03004,4.77617 -16.14732,0.88083c-6.11728,-3.89535 -8.8129,-10.60765 -6.02334,-14.9986z"/><path d="M287.33252,166.26621c0.70745,-2.18949 1.66695,-3.41954 2.66742,-3.41954v0c2.08338,0 3.7723,5.22709 3.7723,11.67503v0c0,3.09641 -0.39744,6.066 -1.10488,8.25549c-0.70744,2.1895 -1.66694,3.41954 -2.66742,3.41954v0c-2.08338,0 -3.7723,-5.22709 -3.7723,-11.67503v0c0,-3.09641 0.39743,-6.066 1.10488,-8.25549z"/><path d="M286.22754,197.15333l3.7723,-19.55606l3.7723,19.55606z"/></g><g data-paper-data="{&quot;index&quot;:null}" fill="#0e0e0e" fill-rule="evenodd" stroke-width="1" stroke-linecap="square"><path d="M190.42994,164.14025c2.78956,4.39095 0.09394,11.10326 -6.02334,14.9986c-6.11727,3.89534 -13.34367,3.50114 -16.14732,-0.88083v0z"/><path d="M211.74074,178.25802v0c-2.80365,4.38198 -10.03004,4.77617 -16.14732,0.88083c-6.11728,-3.89535 -8.8129,-10.60765 -6.02334,-14.9986z"/><path d="M187.33252,166.26621c0.70745,-2.18949 1.66695,-3.41954 2.66742,-3.41954v0c2.08338,0 3.7723,5.22709 3.7723,11.67503v0c0,3.09641 -0.39744,6.066 -1.10488,8.25549c-0.70744,2.1895 -1.66694,3.41954 -2.66742,3.41954v0c-2.08338,0 -3.7723,-5.22709 -3.7723,-11.67503v0c0,-3.09641 0.39743,-6.066 1.10488,-8.25549z"/><path d="M186.22754,197.15333l3.7723,-19.55606l3.7723,19.55606z"/></g><g data-paper-data="{&quot;index&quot;:null}" fill="#0e0e0e" fill-rule="evenodd" stroke-width="1" stroke-linecap="square"><path d="M140.42994,164.14025c2.78956,4.39095 0.09394,11.10326 -6.02334,14.9986c-6.11727,3.89534 -13.34367,3.50114 -16.14732,-0.88083v0z"/><path d="M161.74074,178.25802v0c-2.80365,4.38198 -10.03004,4.77617 -16.14732,0.88083c-6.11728,-3.89535 -8.8129,-10.60765 -6.02334,-14.9986z"/><path d="M137.33252,166.26621c0.70745,-2.18949 1.66695,-3.41954 2.66742,-3.41954v0c2.08338,0 3.7723,5.22709 3.7723,11.67503v0c0,3.09641 -0.39744,6.066 -1.10488,8.25549c-0.70744,2.1895 -1.66694,3.41954 -2.66742,3.41954v0c-2.08338,0 -3.7723,-5.22709 -3.7723,-11.67503v0c0,-3.09641 0.39743,-6.066 1.10488,-8.25549z"/><path d="M136.22753,197.15333l3.7723,-19.55606l3.7723,19.55606z"/></g><g data-paper-data="{&quot;index&quot;:null}" fill="#0e0e0e" fill-rule="evenodd" stroke-width="1" stroke-linecap="square"><path d="M340.42996,164.14025c2.78956,4.39095 0.09394,11.10326 -6.02334,14.9986c-6.11727,3.89534 -13.34367,3.50114 -16.14732,-0.88083v0z"/><path d="M361.74075,178.25802v0c-2.80365,4.38198 -10.03004,4.77617 -16.14732,0.88083c-6.11728,-3.89535 -8.8129,-10.60765 -6.02334,-14.9986z"/><path d="M337.33252,166.26621c0.70745,-2.18949 1.66695,-3.41954 2.66742,-3.41954v0c2.08338,0 3.7723,5.22709 3.7723,11.67503v0c0,3.09641 -0.39744,6.066 -1.10488,8.25549c-0.70744,2.1895 -1.66694,3.41954 -2.66742,3.41954v0c-2.08338,0 -3.7723,-5.22709 -3.7723,-11.67503v0c0,-3.09641 0.39743,-6.066 1.10488,-8.25549z"/><path d="M336.22754,197.15333l3.7723,-19.55606l3.7723,19.55606z"/></g></g></g></svg>