<svg version="1.1" xmlns="http://www.w3.org/2000/svg" xmlns:xlink="http://www.w3.org/1999/xlink" width="319.05077" height="319.05077" viewBox="0,0,319.05077,319.05077"><g transform="translate(-80.47462,-20.47463)"><g data-paper-data="{&quot;isPaintingLayer&quot;:true}" stroke="none" stroke-linejoin="miter" stroke-miterlimit="10" stroke-dasharray="" stroke-dashoffset="0" style="mix-blend-mode: normal"><path d="M224.14026,179.57008c4.39095,-2.78956 11.10326,-0.09394 14.9986,6.02334c3.89534,6.11727 3.50114,13.34367 -0.88083,16.14732v0z" fill="#0c0c0c" fill-rule="evenodd" stroke-width="1" stroke-linecap="square"/><path d="M238.25803,158.25927v0c4.38198,2.80365 4.77617,10.03004 0.88083,16.14732c-3.89535,6.11728 -10.60765,8.8129 -14.9986,6.02334z" fill="#0c0c0c" fill-rule="evenodd" stroke-width="1" stroke-linecap="square"/><path d="M226.26622,182.66752c-2.18949,-0.70745 -3.41954,-1.66695 -3.41954,-2.66742v0c0,-2.08338 5.22709,-3.7723 11.67503,-3.7723v0c3.09641,0 6.066,0.39744 8.25549,1.10488c2.1895,0.70744 3.41954,1.66694 3.41954,2.66742v0c0,2.08338 -5.22709,3.7723 -11.67503,3.7723v0c-3.09641,0 -6.066,-0.39743 -8.25549,-1.10488z" fill="#0c0c0c" fill-rule="evenodd" stroke-width="1" stroke-linecap="square"/><path d="M257.15333,183.7725l-19.55606,-3.7723l19.55606,-3.7723z" fill="#0c0c0c" fill-rule="evenodd" stroke-width="1" stroke-linecap="square"/><path d="M80.47463,339.5254v-319.05077h319.05077v319.05077z" fill="none" fill-rule="nonzero" stroke-width="0" stroke-linecap="butt"/></g></g></svg>