<svg version="1.1" xmlns="http://www.w3.org/2000/svg" xmlns:xlink="http://www.w3.org/1999/xlink" width="30.19718" height="30.19718" viewBox="0,0,30.19718,30.19718"><g transform="translate(-224.90141,-164.90141)"><g data-paper-data="{&quot;isPaintingLayer&quot;:true}" fill-rule="evenodd" stroke="none" stroke-width="1" stroke-linecap="square" stroke-linejoin="miter" stroke-miterlimit="10" stroke-dasharray="" stroke-dashoffset="0" style="mix-blend-mode: normal"><path d="M224.90141,180v0c0,-8.33873 6.75987,-15.09859 15.09859,-15.09859v0c4.00439,0 7.84478,1.59074 10.67632,4.42228c2.83154,2.83154 4.42227,6.67192 4.42227,10.67631v0c0,8.33873 -6.75986,15.09859 -15.09859,15.09859v0c-8.33873,0 -15.09859,-6.75986 -15.09859,-15.09859z" fill="#ff0000"/><path d="M244.98925,170.93217c0.19357,0 0.38712,0.09678 0.58068,0.29035c0.11614,0.11614 0.20905,0.1742 0.27873,0.1742c0.04646,0 0.08258,-0.02581 0.1084,-0.07743c0.12904,-0.06452 0.22583,-0.12904 0.29035,-0.19356c0.08603,-0.08603 0.14337,-0.12904 0.17205,-0.12904c0.01434,0 0.02151,0.01075 0.02151,0.03226c0.06452,0.12904 0.19357,0.25808 0.38713,0.38712c0.12904,0.06452 0.19356,0.19356 0.19356,0.38712c0,0.19357 -0.03226,0.32261 -0.09678,0.38713c-1.35494,1.67755 -2.93569,3.74221 -4.74227,6.19401c1.22589,2.4518 2.16144,4.32289 2.80665,5.61332c-0.06452,0.12904 -0.19356,0.22582 -0.38712,0.29034v0.19357c-0.06452,0.12904 -0.22583,0.25808 -0.48391,0.38712c0.19357,0.32261 0.19357,0.51617 0,0.58069c-0.19356,0.12904 -0.3226,0.22582 -0.38712,0.29034c-0.07373,0.03687 -0.14748,0.05531 -0.22122,0.05531c-0.18435,0 -0.36868,-0.11521 -0.55303,-0.34564c-0.96781,-1.29041 -1.90337,-2.74213 -2.80665,-4.35515c-1.67754,2.51631 -3.16151,4.83907 -4.45192,6.96825c-0.32261,0.51617 -0.54843,0.80651 -0.67747,0.87103c-0.12904,0.08603 -0.3011,0.12904 -0.51617,0.12904c-0.10754,0 -0.22582,-0.01075 -0.35486,-0.03226c-0.08065,0.01613 -0.15323,0.0242 -0.21776,0.0242c-0.19356,0 -0.31454,-0.07259 -0.36292,-0.21776c-0.06453,-0.12904 -0.1613,-0.3226 -0.29034,-0.58068c-0.12904,-0.12904 -0.19357,-0.29035 -0.19357,-0.48391c0.06452,-0.19357 0.12905,-0.41939 0.19357,-0.67747l-0.29035,-0.4839c0.77425,-1.48398 2.70987,-4.22612 5.80686,-8.22642c-0.90329,-1.8711 -1.67754,-3.77447 -2.32274,-5.7101c0,-0.19357 0.1613,-0.41938 0.4839,-0.67747c0.11614,-0.11614 0.22066,-0.17421 0.31357,-0.17421c0.06195,0 0.11872,0.02581 0.17033,0.07742c0.04301,0.08603 0.11471,0.12905 0.21508,0.12905c0.05018,0 0.10753,-0.01076 0.17205,-0.03226c0.19357,-0.06453 0.32261,-0.1613 0.38712,-0.29035c0.06452,-0.06453 0.1613,-0.09678 0.29035,-0.09678c0.19357,0.06452 0.32261,0.1613 0.38712,0.29034c0.32261,0.77425 0.96781,2.06468 1.93562,3.87126c1.29041,-1.48398 2.58083,-3.03248 3.87124,-4.64551c0.06452,-0.12904 0.1613,-0.19356 0.29034,-0.19356z" fill="#ffffff"/></g></g></svg>