<svg version="1.1" xmlns="http://www.w3.org/2000/svg" xmlns:xlink="http://www.w3.org/1999/xlink" width="319.05077" height="319.05077" viewBox="0,0,319.05077,319.05077"><g transform="translate(-80.47464,-20.47462)"><g data-paper-data="{&quot;isPaintingLayer&quot;:true}" stroke="none" stroke-linejoin="miter" stroke-miterlimit="10" stroke-dasharray="" stroke-dashoffset="0" style="mix-blend-mode: normal"><path d="M80.47464,339.5254v-319.05077h319.05077v319.05077z" fill="none" fill-rule="nonzero" stroke-width="0" stroke-linecap="butt"/><g data-paper-data="{&quot;index&quot;:null}" fill="#0e0e0e" fill-rule="evenodd" stroke-width="1" stroke-linecap="square"><path d="M261.74073,128.25802v0c-2.80365,4.38197 -10.03005,4.77617 -16.14732,0.88083c-6.11728,-3.89534 -8.8129,-10.60765 -6.02334,-14.9986z"/><path d="M240.42996,114.14026c2.78956,4.39095 0.09394,11.10325 -6.02334,14.9986c-6.11728,3.89534 -13.34367,3.50115 -16.14732,-0.88083v0z"/><path d="M243.77239,124.52171v0c0,6.44794 -1.68892,11.67503 -3.7723,11.67503v0c-1.00048,0 -1.95998,-1.23004 -2.66742,-3.41954c-0.70744,-2.18949 -1.10488,-5.15908 -1.10488,-8.25549v0c0,-6.44794 1.68892,-11.67503 3.7723,-11.67503v0c1.00047,0 1.95997,1.23005 2.66742,3.41954c0.70745,2.18949 1.10488,5.15908 1.10488,8.25549z"/><path d="M236.22789,147.15333l3.7723,-19.55606l3.7723,19.55606z"/></g><g data-paper-data="{&quot;index&quot;:null}" fill="#0e0e0e" fill-rule="evenodd" stroke-width="1" stroke-linecap="square"><path d="M211.74074,178.25803v0c-2.80365,4.38197 -10.03005,4.77617 -16.14732,0.88083c-6.11728,-3.89534 -8.8129,-10.60765 -6.02334,-14.9986z"/><path d="M190.42994,164.14026c2.78956,4.39095 0.09394,11.10325 -6.02334,14.9986c-6.11728,3.89534 -13.34367,3.50115 -16.14732,-0.88083v0z"/><path d="M193.77239,174.52171v0c0,6.44794 -1.68892,11.67503 -3.7723,11.67503v0c-1.00048,0 -1.95998,-1.23004 -2.66742,-3.41954c-0.70744,-2.18949 -1.10488,-5.15908 -1.10488,-8.25549v0c0,-6.44794 1.68892,-11.67503 3.7723,-11.67503v0c1.00047,0 1.95997,1.23005 2.66742,3.41954c0.70745,2.18949 1.10488,5.15908 1.10488,8.25549z"/><path d="M186.22789,197.15334l3.7723,-19.55606l3.7723,19.55606z"/></g><g data-paper-data="{&quot;index&quot;:null}" fill="#0e0e0e" fill-rule="evenodd" stroke-width="1" stroke-linecap="square"><path d="M261.74073,228.25803v0c-2.80365,4.38197 -10.03005,4.77617 -16.14732,0.88083c-6.11728,-3.89534 -8.8129,-10.60765 -6.02334,-14.9986z"/><path d="M240.42996,214.14026c2.78956,4.39095 0.09394,11.10325 -6.02334,14.9986c-6.11728,3.89534 -13.34367,3.50115 -16.14732,-0.88083v0z"/><path d="M243.77239,224.52171v0c0,6.44794 -1.68892,11.67503 -3.7723,11.67503v0c-1.00048,0 -1.95998,-1.23004 -2.66742,-3.41954c-0.70744,-2.18949 -1.10488,-5.15908 -1.10488,-8.25549v0c0,-6.44794 1.68892,-11.67503 3.7723,-11.67503v0c1.00047,0 1.95997,1.23005 2.66742,3.41954c0.70745,2.18949 1.10488,5.15908 1.10488,8.25549z"/><path d="M236.22789,247.15334l3.7723,-19.55606l3.7723,19.55606z"/></g><g data-paper-data="{&quot;index&quot;:null}" fill="#0e0e0e" fill-rule="evenodd" stroke-width="1" stroke-linecap="square"><path d="M311.74073,178.25803v0c-2.80365,4.38197 -10.03005,4.77617 -16.14732,0.88083c-6.11728,-3.89534 -8.8129,-10.60765 -6.02334,-14.9986z"/><path d="M290.42994,164.14026c2.78956,4.39095 0.09394,11.10325 -6.02334,14.9986c-6.11728,3.89534 -13.34367,3.50115 -16.14732,-0.88083v0z"/><path d="M293.77239,174.52171v0c0,6.44794 -1.68892,11.67503 -3.7723,11.67503v0c-1.00048,0 -1.95998,-1.23004 -2.66742,-3.41954c-0.70744,-2.18949 -1.10488,-5.15908 -1.10488,-8.25549v0c0,-6.44794 1.68892,-11.67503 3.7723,-11.67503v0c1.00047,0 1.95997,1.23005 2.66742,3.41954c0.70745,2.18949 1.10488,5.15908 1.10488,8.25549z"/><path d="M286.22789,197.15334l3.7723,-19.55606l3.7723,19.55606z"/></g></g></g></svg>