<svg version="1.1" xmlns="http://www.w3.org/2000/svg" xmlns:xlink="http://www.w3.org/1999/xlink" width="30.19719" height="30.19719" viewBox="0,0,30.19719,30.19719"><g transform="translate(-224.90141,-164.90141)"><g data-paper-data="{&quot;isPaintingLayer&quot;:true}" fill-rule="evenodd" stroke="none" stroke-width="1" stroke-linecap="square" stroke-linejoin="miter" stroke-miterlimit="10" stroke-dasharray="" stroke-dashoffset="0" style="mix-blend-mode: normal"><path d="M224.90141,180v0c0,-8.33872 6.75987,-15.09859 15.09859,-15.09859v0c4.00439,0 7.84479,1.59074 10.67632,4.42228c2.83154,2.83153 4.42228,6.67192 4.42228,10.67632v0c0,8.33872 -6.75987,15.09859 -15.09859,15.09859v0c-8.33872,0 -15.09859,-6.75987 -15.09859,-15.09859z" fill="#149300"/><path d="M246.92597,172.41789l0.08103,0.40516c-0.91837,0.91838 -2.51201,2.97123 -4.78091,6.15855c-2.21489,3.18732 -3.80853,5.69936 -4.78093,7.53612c-0.21609,0.4862 -0.48619,0.78333 -0.81033,0.89137c-0.12155,0.12155 -0.34945,0.18233 -0.68371,0.18233c-0.11142,0 -0.23466,-0.00675 -0.36971,-0.02026c-0.09454,0.01351 -0.18233,0.02026 -0.26336,0.02026c-0.24309,0 -0.42541,-0.06078 -0.54696,-0.18233c-0.16206,-0.10804 -0.32414,-0.32413 -0.4862,-0.64827c-0.54021,-1.29654 -0.94538,-2.40399 -1.21548,-3.32237c0,-0.21609 -0.02701,-0.40517 -0.08104,-0.56723c0,-0.48621 0.32413,-0.91838 0.97239,-1.29654c0.43218,-0.21609 0.7563,-0.32414 0.97239,-0.32414c0.27011,0.05403 0.45919,0.21609 0.56723,0.4862c0.32413,0.75631 0.54021,1.26953 0.64826,1.53964c0.10804,0.21609 0.21609,0.32414 0.32413,0.32414c0.10805,0 0.21609,-0.08103 0.32413,-0.2431c1.83674,-3.24134 3.48441,-5.75339 4.94299,-7.53612c1.13445,-1.35056 1.83674,-2.13388 2.10684,-2.34998c0.86435,-0.64827 1.89077,-0.99941 3.07924,-1.05343z" fill="#ffffff"/></g></g></svg>