<svg version="1.1" xmlns="http://www.w3.org/2000/svg" xmlns:xlink="http://www.w3.org/1999/xlink" width="319.05077" height="319.05077" viewBox="0,0,319.05077,319.05077"><g transform="translate(-80.47462,-20.47463)"><g data-paper-data="{&quot;isPaintingLayer&quot;:true}" stroke="none" stroke-linejoin="miter" stroke-miterlimit="10" stroke-dasharray="" stroke-dashoffset="0" style="mix-blend-mode: normal"><path d="M240.42994,164.14026c2.78956,4.39095 0.09394,11.10326 -6.02334,14.9986c-6.11727,3.89534 -13.34367,3.50114 -16.14732,-0.88083v0z" fill="#0e0e0e" fill-rule="evenodd" stroke-width="1" stroke-linecap="square"/><path d="M261.74073,178.25803v0c-2.80365,4.38198 -10.03004,4.77617 -16.14732,0.88083c-6.11728,-3.89535 -8.8129,-10.60765 -6.02334,-14.9986z" fill="#0e0e0e" fill-rule="evenodd" stroke-width="1" stroke-linecap="square"/><path d="M237.3325,166.26622c0.70745,-2.18949 1.66695,-3.41954 2.66742,-3.41954v0c2.08338,0 3.7723,5.22709 3.7723,11.67503v0c0,3.09641 -0.39744,6.066 -1.10488,8.25549c-0.70744,2.1895 -1.66694,3.41954 -2.66742,3.41954v0c-2.08338,0 -3.7723,-5.22709 -3.7723,-11.67503v0c0,-3.09641 0.39743,-6.066 1.10488,-8.25549z" fill="#0e0e0e" fill-rule="evenodd" stroke-width="1" stroke-linecap="square"/><path d="M236.22752,197.15334l3.7723,-19.55606l3.7723,19.55606z" fill="#0e0e0e" fill-rule="evenodd" stroke-width="1" stroke-linecap="square"/><path d="M80.47463,339.5254v-319.05077h319.05077v319.05077z" fill="none" fill-rule="nonzero" stroke-width="0" stroke-linecap="butt"/></g></g></svg>