<svg version="1.1" xmlns="http://www.w3.org/2000/svg" xmlns:xlink="http://www.w3.org/1999/xlink" width="319.05077" height="319.05077" viewBox="0,0,319.05077,319.05077"><g transform="translate(-80.47464,-20.47462)"><g data-paper-data="{&quot;isPaintingLayer&quot;:true}" stroke="none" stroke-linejoin="miter" stroke-miterlimit="10" stroke-dasharray="" stroke-dashoffset="0" style="mix-blend-mode: normal"><path d="M80.47464,339.5254v-319.05077h319.05077v319.05077z" fill="none" fill-rule="nonzero" stroke-width="0" stroke-linecap="butt"/><g data-paper-data="{&quot;index&quot;:null}" fill="#0c0c0c" fill-rule="evenodd" stroke-width="1" stroke-linecap="square"><path d="M240.43,114.14026c2.78956,4.39095 0.09394,11.10326 -6.02334,14.9986c-6.11727,3.89534 -13.34367,3.50114 -16.14732,-0.88083v0z"/><path d="M261.74077,128.25802v0c-2.80365,4.38198 -10.03004,4.77617 -16.14732,0.88083c-6.11728,-3.89535 -8.8129,-10.60765 -6.02334,-14.9986z"/><path d="M237.33257,116.26622c0.70745,-2.18949 1.66695,-3.41954 2.66742,-3.41954v0c2.08338,0 3.7723,5.22709 3.7723,11.67503v0c0,3.09641 -0.39744,6.066 -1.10488,8.25549c-0.70744,2.1895 -1.66694,3.41954 -2.66742,3.41954v0c-2.08338,0 -3.7723,-5.22709 -3.7723,-11.67503v0c0,-3.09641 0.39743,-6.066 1.10488,-8.25549z"/><path d="M236.22758,147.15333l3.7723,-19.55606l3.7723,19.55606z"/></g><g data-paper-data="{&quot;index&quot;:null}" fill="#0c0c0c" fill-rule="evenodd" stroke-width="1" stroke-linecap="square"><path d="M240.43,214.14026c2.78956,4.39095 0.09394,11.10326 -6.02334,14.9986c-6.11727,3.89534 -13.34367,3.50114 -16.14732,-0.88083v0z"/><path d="M261.74077,228.25803v0c-2.80365,4.38198 -10.03004,4.77617 -16.14732,0.88083c-6.11728,-3.89535 -8.8129,-10.60765 -6.02334,-14.9986z"/><path d="M237.33256,216.26622c0.70745,-2.18949 1.66695,-3.41954 2.66742,-3.41954v0c2.08338,0 3.7723,5.22709 3.7723,11.67503v0c0,3.09641 -0.39744,6.066 -1.10488,8.25549c-0.70744,2.1895 -1.66694,3.41954 -2.66742,3.41954v0c-2.08338,0 -3.7723,-5.22709 -3.7723,-11.67503v0c0,-3.09641 0.39743,-6.066 1.10488,-8.25549z"/><path d="M236.22758,247.15334l3.7723,-19.55606l3.7723,19.55606z"/></g><g data-paper-data="{&quot;index&quot;:null}" fill="#0c0c0c" fill-rule="evenodd" stroke-width="1" stroke-linecap="square"><path d="M240.43,264.14026c2.78956,4.39095 0.09394,11.10326 -6.02334,14.9986c-6.11727,3.89534 -13.34367,3.50114 -16.14732,-0.88083v0z"/><path d="M261.74077,278.25802v0c-2.80365,4.38198 -10.03004,4.77617 -16.14732,0.88083c-6.11728,-3.89535 -8.8129,-10.60765 -6.02334,-14.9986z"/><path d="M237.33257,266.26622c0.70745,-2.18949 1.66695,-3.41954 2.66742,-3.41954v0c2.08338,0 3.7723,5.22709 3.7723,11.67503v0c0,3.09641 -0.39744,6.066 -1.10488,8.25549c-0.70744,2.1895 -1.66694,3.41954 -2.66742,3.41954v0c-2.08338,0 -3.7723,-5.22709 -3.7723,-11.67503v0c0,-3.09641 0.39743,-6.066 1.10488,-8.25549z"/><path d="M236.22758,297.15333l3.7723,-19.55606l3.7723,19.55606z"/></g><g data-paper-data="{&quot;index&quot;:null}" fill="#0c0c0c" fill-rule="evenodd" stroke-width="1" stroke-linecap="square"><path d="M240.43,64.14026c2.78956,4.39095 0.09394,11.10326 -6.02334,14.9986c-6.11727,3.89534 -13.34367,3.50114 -16.14732,-0.88083v0z"/><path d="M261.74077,78.25803v0c-2.80365,4.38198 -10.03004,4.77617 -16.14732,0.88083c-6.11728,-3.89535 -8.8129,-10.60765 -6.02334,-14.9986z"/><path d="M237.33257,66.26622c0.70745,-2.18949 1.66695,-3.41954 2.66742,-3.41954v0c2.08338,0 3.7723,5.22709 3.7723,11.67503v0c0,3.09641 -0.39744,6.066 -1.10488,8.25549c-0.70744,2.1895 -1.66694,3.41954 -2.66742,3.41954v0c-2.08338,0 -3.7723,-5.22709 -3.7723,-11.67503v0c0,-3.09641 0.39743,-6.066 1.10488,-8.25549z"/><path d="M236.22758,97.15334l3.7723,-19.55606l3.7723,19.55606z"/></g></g></g></svg>